<svg width="64" height="44" viewBox="0 0 64 44" fill="none" xmlns="http://www.w3.org/2000/svg">
<path d="M26 6.76001V10.14H63.965C63.912 9.05001 63.798 7.67201 63.39 6.76001" fill="#EC1C24"/>
<path d="M61.6 3.38H26V6.76H63.39C62.984 5.499 62.38 4.349 61.6 3.38Z" fill="#E6E7E8"/>
<path d="M54 0H26V3.38H61.6C59.931 1.29 57.184 0 54 0Z" fill="#EC1C24"/>
<path d="M63.965 10.14H26V13.52H64V11.267C64 11.066 63.987 10.87 63.981 10.673C63.977 10.619 63.971 10.48 63.965 10.14Z" fill="#E6E7E8"/>
<path d="M26 16.9H64V13.52H26V16.9Z" fill="#EC1C24"/>
<path d="M26 20.28H64V16.9H26V20.28Z" fill="#E6E7E8"/>
<path d="M26 20.28H64V23.66H26V20.28Z" fill="#EC1C24"/>
<path d="M0 23.66V27.04H64V23.66H26H0Z" fill="#E6E7E8"/>
<path d="M0 27.04H64V30.42H0V27.04Z" fill="#EC1C24"/>
<path d="M0.005 32.499C0.005 32.499 -0.004 33.318 0.02 33.8H63.98C64.008 33.306 63.995 32.499 63.995 32.499L64 30.42H0L0.005 32.499Z" fill="#E6E7E8"/>
<path d="M10 44H54C57.193 44 59.847 42.84 61.66 40.56H2.33002C4.20202 42.89 6.90602 44 9.99502 44" fill="#EC1C24"/>
<path d="M2.33498 40.56H61.665C62.4559 39.555 63.0466 38.4076 63.405 37.18H0.60498C0.970077 38.404 1.55829 39.5499 2.33998 40.56" fill="#E6E7E8"/>
<path d="M0.60002 37.18H63.4C63.7275 36.0805 63.9222 34.9458 63.98 33.8H0.0200195C0.11902 34.956 0.21102 35.829 0.60002 37.18Z" fill="#EC1C24"/>
<path d="M26 0H10C3.373 0 0 4.925 0 11V23.66H26V0Z" fill="#176496"/>
<path d="M2.798 5.97602L3.342 5.55802L3.885 5.97602L3.674 5.30402L4.215 4.89302H3.547L3.34 4.21802L3.134 4.89302H2.467L3.01 5.30402L2.798 5.97602ZM6.392 5.97602L6.936 5.55802L7.479 5.97602L7.269 5.30402L7.809 4.89302H7.142L6.935 4.21802L6.729 4.89302H6.06L6.603 5.30402L6.392 5.97602ZM10.357 5.97602L10.9 5.55802L11.444 5.97602L11.233 5.30402L11.773 4.89302H11.11L10.9 4.21802L10.693 4.89302H10.03L10.567 5.30402L10.357 5.97602ZM14.293 5.97602L14.836 5.55802L15.38 5.97602L15.17 5.30402L15.71 4.89302H15.04L14.836 4.21802L14.63 4.89302H13.962L14.504 5.30402L14.293 5.97602ZM18.243 5.97602L18.787 5.55802L19.33 5.97602L19.12 5.30402L19.661 4.89302H18.992L18.786 4.21802L18.58 4.89302H17.913L18.453 5.30402L18.243 5.97602ZM4.711 7.73102L5.254 7.31402L5.797 7.73102L5.588 7.06002L6.128 6.64902H5.46L5.253 5.97502L5.05 6.64902H4.38L4.921 7.06002L4.711 7.73102ZM8.306 7.73102L8.849 7.31402L9.392 7.73102L9.182 7.06002L9.722 6.64902H9.05L8.849 5.97502L8.642 6.64902H7.975L8.516 7.06002L8.306 7.73102ZM12.271 7.73102L12.813 7.31402L13.356 7.73102L13.146 7.06002L13.687 6.64902H13.02L12.813 5.97502L12.606 6.64902H11.938L12.479 7.06002L12.271 7.73102ZM16.205 7.73102L16.749 7.31402L17.293 7.73102L17.08 7.06002L17.622 6.64902H16.955L16.748 5.97502L16.543 6.64902H15.875L16.416 7.06002L16.205 7.73102ZM20.16 7.73102L20.699 7.31402L21.242 7.73102L21.03 7.06002L21.572 6.64902H20.906L20.698 5.97502L20.493 6.64902H19.825L20.366 7.06002L20.16 7.73102ZM22.387 5.97602L22.93 5.55802L23.474 5.97602L23.263 5.30402L23.803 4.89302H23.14L22.929 4.21802L22.723 4.89302H22.05L22.597 5.30402L22.387 5.97602ZM2.745 20.02L3.289 19.607L3.832 20.02L3.622 19.354L4.162 18.942L3.495 18.944L3.287 18.27L3.083 18.944L2.414 18.942L2.955 19.354L2.745 20.02ZM6.34 20.02L6.883 19.607L7.427 20.02L7.216 19.354L7.756 18.942L7.09 18.944L6.882 18.27L6.677 18.944L6.01 18.942L6.55 19.354L6.34 20.02ZM10.305 20.02L10.848 19.607L11.392 20.02L11.181 19.354L11.721 18.942L11.05 18.944L10.847 18.27L10.641 18.944L9.974 18.942L10.515 19.354L10.305 20.02ZM14.241 20.02L14.784 19.607L15.327 20.02L15.12 19.354L15.657 18.942L14.989 18.944L14.783 18.27L14.577 18.944L13.91 18.942L14.45 19.354L14.241 20.02ZM18.19 20.02L18.734 19.607L19.278 20.02L19.07 19.354L19.607 18.942L18.94 18.944L18.733 18.27L18.528 18.944L17.86 18.942L18.4 19.354L18.19 20.02ZM22.334 20.02L22.877 19.607L23.421 20.02L23.21 19.354L23.751 18.942L23.08 18.944L22.876 18.27L22.67 18.944L22 18.942L22.544 19.354L22.334 20.02ZM2.798 9.48802L3.342 9.07002L3.885 9.48802L3.674 8.81602L4.215 8.40502L3.547 8.40702L3.34 7.73102L3.134 8.40702L2.467 8.40502L3.01 8.81602L2.798 9.48802ZM6.392 9.48802L6.936 9.07002L7.479 9.48802L7.269 8.81602L7.809 8.40502L7.142 8.40702L6.935 7.73102L6.729 8.40702L6.06 8.40502L6.603 8.81602L6.392 9.48802ZM10.357 9.48802L10.9 9.07002L11.444 9.48802L11.233 8.81602L11.773 8.40502L11.11 8.40702L10.9 7.73102L10.693 8.40702L10.03 8.40502L10.567 8.81602L10.357 9.48802ZM14.293 9.48802L14.836 9.07002L15.38 9.48802L15.17 8.81602L15.71 8.40502L15.04 8.40702L14.836 7.73102L14.63 8.40702L13.962 8.40502L14.504 8.81602L14.293 9.48802ZM18.243 9.48802L18.787 9.07002L19.33 9.48802L19.12 8.81602L19.661 8.40502L18.992 8.40702L18.786 7.73102L18.58 8.40702L17.913 8.40502L18.453 8.81602L18.243 9.48802ZM4.711 11.244L5.254 10.827L5.797 11.244L5.588 10.573L6.128 10.16H5.46L5.253 9.48802L5.05 10.16H4.38L4.921 10.573L4.711 11.244ZM8.306 11.244L8.849 10.827L9.392 11.244L9.182 10.573L9.722 10.16H9.05L8.849 9.48802L8.642 10.16H7.975L8.516 10.573L8.306 11.244ZM12.271 11.244L12.813 10.827L13.356 11.244L13.146 10.573L13.687 10.16H13.02L12.813 9.48802L12.606 10.16H11.938L12.479 10.573L12.271 11.244ZM16.205 11.244L16.749 10.827L17.293 11.244L17.08 10.573L17.622 10.16H16.955L16.748 9.48802L16.543 10.16H15.875L16.416 10.573L16.205 11.244ZM20.16 11.244L20.699 10.827L21.242 11.244L21.03 10.573L21.572 10.16H20.906L20.698 9.48802L20.493 10.16H19.825L20.366 10.573L20.16 11.244ZM22.387 9.48802L22.93 9.07002L23.474 9.48802L23.263 8.81602L23.803 8.40502L23.14 8.40702L22.929 7.73102L22.723 8.40702L22.05 8.40502L22.597 8.81602L22.387 9.48802ZM2.745 13L3.289 12.583L3.832 13L3.621 12.33L4.162 11.918L3.494 11.92L3.287 11.244L3.083 11.92L2.414 11.918L2.955 12.33L2.745 13ZM6.34 13L6.883 12.583L7.427 13L7.216 12.33L7.756 11.918L7.09 11.92L6.882 11.244L6.677 11.92L6.01 11.918L6.549 12.33L6.34 13ZM10.305 13L10.848 12.583L11.391 13L11.181 12.33L11.721 11.918L11.05 11.92L10.847 11.244L10.641 11.92L9.974 11.918L10.515 12.33L10.305 13ZM14.241 13L14.783 12.583L15.327 13L15.12 12.33L15.657 11.918L14.989 11.92L14.783 11.244L14.577 11.92L13.91 11.918L14.45 12.33L14.241 13ZM18.19 13L18.734 12.583L19.277 13L19.07 12.33L19.607 11.918L18.939 11.92L18.733 11.244L18.528 11.92L17.86 11.918L18.4 12.33L18.19 13ZM4.658 14.756L5.201 14.34L5.744 14.756L5.535 14.09L6.074 13.676H5.406L5.2 13L4.995 13.676H4.327L4.868 14.09L4.658 14.756ZM8.253 14.756L8.796 14.34L9.339 14.756L9.129 14.09L9.669 13.676H9L8.795 13L8.589 13.676H7.921L8.463 14.09L8.253 14.756ZM12.219 14.756L12.76 14.34L13.304 14.756L13.09 14.09L13.634 13.676H12.967L12.76 13L12.554 13.676H11.886L12.427 14.09L12.219 14.756ZM16.15 14.756L16.696 14.34L17.24 14.756L17.03 14.09L17.569 13.676H16.902L16.695 13L16.49 13.676H15.822L16.363 14.09L16.15 14.756ZM20.1 14.756L20.646 14.34L21.19 14.756L20.979 14.09L21.521 13.676H20.854L20.646 13L20.44 13.676H19.772L20.313 14.09L20.1 14.756ZM22.334 13L22.877 12.583L23.42 13L23.21 12.33L23.751 11.918L23.08 11.92L22.876 11.244L22.67 11.92L22 11.918L22.544 12.33L22.334 13ZM2.745 16.513L3.289 16.1L3.832 16.513L3.621 15.842L4.162 15.43L3.494 15.432L3.287 14.756L3.083 15.432L2.414 15.43L2.955 15.842L2.745 16.513ZM6.34 16.513L6.883 16.1L7.427 16.513L7.216 15.842L7.756 15.43L7.09 15.432L6.882 14.756L6.677 15.432L6.01 15.43L6.549 15.842L6.34 16.513ZM10.305 16.513L10.848 16.1L11.391 16.513L11.181 15.842L11.721 15.43L11.05 15.432L10.847 14.756L10.641 15.432L9.974 15.43L10.515 15.842L10.305 16.513ZM14.241 16.513L14.783 16.1L15.327 16.513L15.12 15.842L15.657 15.43L14.989 15.432L14.783 14.756L14.577 15.432L13.91 15.43L14.45 15.842L14.241 16.513ZM18.19 16.513L18.734 16.1L19.277 16.513L19.07 15.842L19.607 15.43L18.939 15.432L18.733 14.756L18.528 15.432L17.86 15.43L18.4 15.842L18.19 16.513ZM4.658 18.27L5.201 17.852L5.744 18.27L5.535 17.598L6.074 17.19H5.406L5.2 16.513L4.995 17.19H4.327L4.868 17.598L4.658 18.27ZM8.253 18.27L8.796 17.852L9.339 18.27L9.129 17.598L9.669 17.19H9L8.795 16.513L8.589 17.19H7.921L8.463 17.598L8.253 18.27ZM12.219 18.27L12.76 17.852L13.304 18.27L13.09 17.598L13.634 17.19H12.967L12.76 16.513L12.554 17.19H11.886L12.427 17.598L12.219 18.27ZM16.15 18.27L16.696 17.852L17.24 18.27L17.03 17.598L17.569 17.19H16.902L16.695 16.513L16.49 17.19H15.822L16.363 17.598L16.15 18.27ZM20.1 18.27L20.646 17.852L21.19 18.27L20.979 17.598L21.521 17.19H20.854L20.646 16.513L20.44 17.19H19.772L20.313 17.598L20.1 18.27ZM22.334 16.513L22.877 16.1L23.42 16.513L23.21 15.842L23.751 15.43L23.08 15.432L22.876 14.756L22.67 15.432L22 15.43L22.544 15.842L22.334 16.513Z" fill="white"/>
</svg>
